<svg width="44" height="44" viewBox="0 0 44 44" fill="none" xmlns="http://www.w3.org/2000/svg">
<path d="M30.591 21.8225L31.0218 22.25H30.4149H12.8333C12.2807 22.25 11.7508 22.0305 11.3601 21.6398C10.9694 21.2491 10.7499 20.7192 10.7499 20.1667V12.8333C10.7499 12.4134 10.5831 12.0107 10.2862 11.7137C9.98927 11.4168 9.58654 11.25 9.16661 11.25C8.74669 11.25 8.34396 11.4168 8.04703 11.7137C7.75009 12.0107 7.58328 12.4134 7.58328 12.8333V20.1667C7.58328 21.5591 8.1364 22.8944 9.12097 23.879C10.1055 24.8635 11.4409 25.4167 12.8333 25.4167H30.4149H31.0218L30.591 25.8441L28.2077 28.2091L28.2077 28.2092C28.0593 28.3564 27.9415 28.5315 27.8611 28.7244C27.7807 28.9174 27.7393 29.1243 27.7393 29.3333C27.7393 29.5424 27.7807 29.7493 27.8611 29.9422C27.9415 30.1352 28.0593 30.3103 28.2077 30.4575L28.2091 30.4589C28.3563 30.6074 28.5314 30.7251 28.7244 30.8055C28.9173 30.8859 29.1243 30.9273 29.3333 30.9273C29.5423 30.9273 29.7492 30.8859 29.9422 30.8055C30.1351 30.7251 30.3103 30.6074 30.4574 30.4589L30.4582 30.4582L35.9562 24.9602C36.0995 24.81 36.2118 24.6332 36.2869 24.4396L36.2868 24.4396L36.2887 24.435C36.4471 24.0495 36.4471 23.6171 36.2887 23.2317L36.2887 23.2317L36.2869 23.227C36.2118 23.0335 36.0994 22.8566 35.9562 22.7064L30.4582 17.2084C30.1598 16.9101 29.7552 16.7425 29.3333 16.7425C28.9114 16.7425 28.5067 16.9101 28.2084 17.2084C27.91 17.5068 27.7424 17.9114 27.7424 18.3333C27.7424 18.7551 27.9099 19.1596 28.2081 19.4579C28.2082 19.458 28.2083 19.4581 28.2084 19.4582L30.591 21.8225Z" fill="#E8E8E8" stroke="white" stroke-width="0.5"/>
</svg>
