<svg width="44" height="44" viewBox="0 0 44 44" fill="none" xmlns="http://www.w3.org/2000/svg">
<g clip-path="url(#clip0_72_21)">
<path d="M30.4413 19.2047L30.4418 19.2052L37.9951 26.783L38.101 26.8892L37.9948 26.9951L30.4414 34.524L30.4412 34.5243C30.313 34.6514 30.1609 34.7521 29.9937 34.8204C29.8266 34.8886 29.6476 34.9232 29.4671 34.9222L30.4413 19.2047ZM30.4413 19.2047C30.1842 18.9491 29.8364 18.8057 29.4739 18.8057C29.1114 18.8057 28.7636 18.9491 28.5065 19.2047L28.5058 19.2054C28.2502 19.4625 28.1068 19.8102 28.1068 20.1728C28.1068 20.5353 28.2502 20.8831 28.5058 21.1402L28.5061 21.1405L32.8823 25.5167L30.4413 19.2047Z" fill="#E8E8E8" stroke="#E8E8E8" stroke-width="0.3"/>
</g>
<defs>
<clipPath id="clip0_72_21">
<rect width="44" height="44" fill="white"/>
</clipPath>
</defs>
</svg>
