<svg width="831" height="236" viewBox="0 0 831 236" fill="none" xmlns="http://www.w3.org/2000/svg">
<path d="M118.34 187.74C102.74 194.24 82.72 198.14 65.3 198.14C24.74 198.14 0.0400004 173.18 0.0400004 133.4C0.0400004 89.72 23.44 67.62 70.76 67.62C84.02 67.62 95.2 68.4 104.56 69.96C108.98 70.74 110.8 73.08 110.8 77.5V92.32C110.8 97 108.46 99.08 104.3 98.56C93.38 97.26 82.46 96.48 74.92 96.48C43.72 96.48 29.94 108.7 29.94 133.92C29.94 156.02 43.98 169.54 68.94 169.54C79.08 169.54 93.38 166.42 109.76 160.96C111.06 160.44 112.1 160.44 113.14 160.44C116 160.44 117.82 162 118.86 165.12L122.76 179.16C124.06 183.58 122.76 185.92 118.34 187.74ZM174.24 223.88C174.24 228.3 171.64 230.9 167.48 230.9H151.1C146.94 230.9 144.34 228.3 144.34 223.88V7.56C144.34 3.13999 146.94 0.539996 151.1 0.539996H167.48C171.64 0.539996 174.24 3.13999 174.24 7.56V96.74C176.06 93.36 179.7 91.54 184.9 91.54H200.24C204.66 91.54 206.74 93.62 206.74 98.04V113.64C206.74 118.06 204.66 120.14 200.24 120.14H183.34C177.1 120.14 174.24 122.74 174.24 128.46V223.88ZM9.4 45.52C4.98 45.52 2.9 43.44 2.9 39.02V23.42C2.9 19 4.98 16.92 9.4 16.92H108.98C113.4 16.92 115.48 19 115.48 23.42V39.02C115.48 43.44 113.4 45.52 108.98 45.52H9.4ZM544.791 187.74C529.191 194.24 509.171 198.14 491.751 198.14C451.191 198.14 426.491 173.18 426.491 133.4C426.491 89.72 449.891 67.62 497.211 67.62C510.471 67.62 521.651 68.4 531.011 69.96C535.431 70.74 537.251 73.08 537.251 77.5V92.32C537.251 97 534.911 99.08 530.751 98.56C519.831 97.26 508.911 96.48 501.371 96.48C470.171 96.48 456.391 108.7 456.391 133.92C456.391 156.02 470.431 169.54 495.391 169.54C505.531 169.54 519.831 166.42 536.211 160.96C537.511 160.44 538.551 160.44 539.591 160.44C542.451 160.44 544.271 162 545.311 165.12L549.211 179.16C550.511 183.58 549.211 185.92 544.791 187.74ZM600.691 223.88C600.691 228.3 598.091 230.9 593.931 230.9H577.551C573.391 230.9 570.791 228.3 570.791 223.88V7.56C570.791 3.13999 573.391 0.539996 577.551 0.539996H593.931C598.091 0.539996 600.691 3.13999 600.691 7.56V96.74C602.511 93.36 606.151 91.54 611.351 91.54H626.691C631.111 91.54 633.191 93.62 633.191 98.04V113.64C633.191 118.06 631.111 120.14 626.691 120.14H609.791C603.551 120.14 600.691 122.74 600.691 128.46V223.88ZM435.851 45.52C431.431 45.52 429.351 43.44 429.351 39.02V23.42C429.351 19 431.431 16.92 435.851 16.92H535.431C539.851 16.92 541.931 19 541.931 23.42V39.02C541.931 43.44 539.851 45.52 535.431 45.52H435.851Z" fill="#7280FB"/>
<path d="M233.55 185.66C233.55 152.9 261.89 136.26 318.57 136.26C375.25 136.26 403.59 152.9 403.59 185.66C403.59 218.42 375.25 235.06 318.57 235.06C261.89 235.06 233.55 218.42 233.55 185.66ZM263.45 185.66C263.45 199.18 277.49 207.76 318.57 207.76C359.65 207.76 373.69 199.18 373.69 185.66C373.69 172.14 359.65 163.56 318.57 163.56C277.49 163.56 263.45 172.14 263.45 185.66ZM397.87 117.28C397.87 121.7 395.27 124.3 391.11 124.3H374.73C370.57 124.3 367.97 121.7 367.97 117.28V7.56C367.97 3.13999 370.57 0.539996 374.73 0.539996H391.11C395.27 0.539996 397.87 3.13999 397.87 7.56V117.28ZM293.35 110.52C298.55 93.1 303.23 68.92 303.23 55.4C303.23 41.1 296.47 35.38 283.21 35.38C255.13 35.38 242.91 37.72 225.75 40.06C221.59 40.58 218.99 37.72 218.99 33.3V18.22C218.99 14.06 221.07 11.72 225.49 11.2C245.51 8.33999 263.97 6.52 284.51 6.52C319.35 6.52 333.39 21.34 333.39 55.92C333.39 70.22 328.19 93.62 323.77 111.3C322.73 115.72 320.91 117.54 316.49 117.54H299.85C295.17 117.54 292.05 114.42 293.35 110.52ZM660.001 185.66C660.001 152.9 688.341 136.26 745.021 136.26C801.701 136.26 830.041 152.9 830.041 185.66C830.041 218.42 801.701 235.06 745.021 235.06C688.341 235.06 660.001 218.42 660.001 185.66ZM689.901 185.66C689.901 199.18 703.941 207.76 745.021 207.76C786.101 207.76 800.141 199.18 800.141 185.66C800.141 172.14 786.101 163.56 745.021 163.56C703.941 163.56 689.901 172.14 689.901 185.66ZM824.321 117.28C824.321 121.7 821.721 124.3 817.561 124.3H801.181C797.021 124.3 794.421 121.7 794.421 117.28V7.56C794.421 3.13999 797.021 0.539996 801.181 0.539996H817.561C821.721 0.539996 824.321 3.13999 824.321 7.56V117.28ZM719.801 110.52C725.001 93.1 729.681 68.92 729.681 55.4C729.681 41.1 722.921 35.38 709.661 35.38C681.581 35.38 669.361 37.72 652.201 40.06C648.041 40.58 645.441 37.72 645.441 33.3V18.22C645.441 14.06 647.521 11.72 651.941 11.2C671.961 8.33999 690.421 6.52 710.961 6.52C745.801 6.52 759.841 21.34 759.841 55.92C759.841 70.22 754.641 93.62 750.221 111.3C749.181 115.72 747.361 117.54 742.941 117.54H726.301C721.621 117.54 718.501 114.42 719.801 110.52Z" fill="black"/>
</svg>